<?xml version="1.0" standalone="no"?><!DOCTYPE svg PUBLIC "-//W3C//DTD SVG 1.1//EN" "http://www.w3.org/Graphics/SVG/1.1/DTD/svg11.dtd"><svg t="1553250166249" class="icon" style="" viewBox="0 0 1024 1024" version="1.1" xmlns="http://www.w3.org/2000/svg" p-id="3121" xmlns:xlink="http://www.w3.org/1999/xlink" width="32" height="32"><defs><style type="text/css"></style></defs><path d="M1016.510487 335.414821L627.77445 724.150858a24.986169 24.986169 0 0 1-35.346288-35.346288L981.091069 299.995403a25.034923 25.034923 0 0 1 35.419418 35.419418zM780.056009 390.189379a24.37675 24.37675 0 0 1-24.37675-24.376751V67.684972l-357.411913 221.828428a22.450987 22.450987 0 0 1-8.239341 2.973964V292.682378H73.130251a24.37675 24.37675 0 0 0-24.37675 24.37675v390.028005a24.37675 24.37675 0 0 0 24.37675 24.37675h316.897754v0.14626a22.450987 22.450987 0 0 1 8.239341 2.973964L755.679259 956.461288V707.087133a24.37675 24.37675 0 0 1 48.753501 0v292.521003c0 0.487535-0.243768 0.926317-0.292521 1.413852a24.084229 24.084229 0 0 1-2.193908 11.115798 20.744614 20.744614 0 0 1-21.30528 11.725217H780.056009a23.913592 23.913592 0 0 1-19.111372-9.921338L384.226338 780.217383H48.753501a48.753501 48.753501 0 0 1-48.753501-48.7535V292.682378a48.753501 48.753501 0 0 1 48.753501-48.753501h335.472837L760.944637 10.082711A23.913592 23.913592 0 0 1 780.056009 0.161374h0.585042a20.744614 20.744614 0 0 1 21.30528 11.725217 24.084229 24.084229 0 0 1 2.193908 11.115798c0 0.487535 0.292521 0.926317 0.292521 1.413852v341.274504A24.37675 24.37675 0 0 1 780.056009 390.189379z" p-id="3122" fill="#ffffff"></path></svg>